<svg width="657.9px" height="122px" xmlns="http://www.w3.org/2000/svg" viewBox="-78.94687499999998 14 657.89375 122" style="background: rgba(0, 0, 0, 0)" preserveAspectRatio="xMidYMid"><defs><linearGradient id="editing-gradient-gradient" x1="0" x2="1" y1="0.5" y2="0.5" gradientUnits="objectBoundingBox"><stop offset="0" stop-color="#6062da"></stop><stop offset="1" stop-color="#ff00ff"></stop></linearGradient></defs><g><g transform="matrix(1.2,0,0,1.5,-20.9,157.5)"><path d="M 45.3 -31 L 31.4 -31 L 39.5 -73.2 L 53.6 -73.2 L 45.3 -31 Z M 101.1 -29.7 L 101.1 -29.7 L 101.1 -29.7 Q 93.3 -29.7 93.3 -35.7 L 93.3 -35.7 L 93.3 -35.7 Q 93.3 -38.3 94.4 -43.4 L 94.4 -43.4 L 94.4 -43.4 Q 95.6 -48.5 95.9 -50.6 L 95.9 -50.6 L 95.9 -50.6 Q 96.8 -55.2 96.8 -56.7 L 96.8 -56.7 L 96.8 -56.7 Q 96.8 -60 94.4 -60 L 94.4 -60 L 94.4 -60 Q 92.8 -60 91.3 -57.8 L 91.3 -57.8 L 91.3 -57.8 Q 89.7 -55.6 89 -51.1 L 89 -51.1 L 85.1 -31 L 72.6 -29.7 L 76 -47.1 L 76 -47.1 Q 76.6 -50 77.1 -53.3 L 77.1 -53.3 L 77.1 -53.3 Q 77.6 -56.5 77.6 -57 L 77.6 -57 L 77.6 -57 Q 77.6 -60 75.5 -60 L 75.5 -60 L 75.5 -60 Q 74 -60 72.4 -57.8 L 72.4 -57.8 L 72.4 -57.8 Q 70.8 -55.6 69.9 -51.1 L 69.9 -51.1 L 66 -31 L 53.4 -29.7 L 60.1 -63.6 L 70.5 -64.9 L 69.4 -58.4 L 69.4 -58.4 Q 71.1 -61.9 74.2 -63.4 L 74.2 -63.4 L 74.2 -63.4 Q 77.2 -64.9 82 -64.9 L 82 -64.9 L 82 -64.9 Q 84.8 -64.9 86.6 -63.6 L 86.6 -63.6 L 86.6 -63.6 Q 88.4 -62.2 89 -60 L 89 -60 L 89 -60 Q 90 -62.3 92.8 -63.6 L 92.8 -63.6 L 92.8 -63.6 Q 95.6 -64.9 99 -64.9 L 99 -64.9 L 99 -64.9 Q 102.5 -64.9 104.2 -64.2 L 104.2 -64.2 L 104.2 -64.2 Q 105.9 -63.4 106.9 -62.2 L 106.9 -62.2 L 106.9 -62.2 Q 108.6 -60 108.6 -55.9 L 108.6 -55.9 L 108.6 -55.9 Q 108.6 -51.8 106.9 -43.5 L 106.9 -43.5 L 106.9 -43.5 Q 106 -39.4 106 -37.9 L 106 -37.9 L 106 -37.9 Q 106 -36.4 106.8 -35.5 L 106.8 -35.5 L 106.8 -35.5 Q 107.7 -34.6 109 -34.4 L 109 -34.4 L 109 -34.4 Q 108.4 -32.3 106.1 -31 L 106.1 -31 L 106.1 -31 Q 103.9 -29.7 101.1 -29.7 Z M 116.7 -32.9 L 116.7 -32.9 L 116.7 -32.9 Q 115.2 -34.6 114.5 -37.2 L 114.5 -37.2 L 114.5 -37.2 Q 113.9 -39.8 113.9 -44.1 L 113.9 -44.1 L 113.9 -44.1 Q 113.9 -48.4 115.3 -52.3 L 115.3 -52.3 L 115.3 -52.3 Q 116.8 -56.2 119.5 -59 L 119.5 -59 L 119.5 -59 Q 125 -64.9 134.1 -64.9 L 134.1 -64.9 L 134.1 -64.9 Q 137.3 -64.9 139.7 -63.8 L 139.7 -63.8 L 150.7 -64.9 L 145.9 -39.9 L 145.9 -39.9 Q 145.7 -39.2 145.7 -37.8 L 145.7 -37.8 L 145.7 -37.8 Q 145.7 -36.4 146.6 -35.5 L 146.6 -35.5 L 146.6 -35.5 Q 147.5 -34.6 148.7 -34.4 L 148.7 -34.4 L 148.7 -34.4 Q 148.1 -32.3 145.8 -31 L 145.8 -31 L 145.8 -31 Q 143.4 -29.7 140.8 -29.7 L 140.8 -29.7 L 140.8 -29.7 Q 138.2 -29.7 136.4 -30.7 L 136.4 -30.7 L 136.4 -30.7 Q 134.7 -31.7 134.1 -33.4 L 134.1 -33.4 L 134.1 -33.4 Q 133.1 -31.8 130.9 -30.7 L 130.9 -30.7 L 130.9 -30.7 Q 128.8 -29.7 125.9 -29.7 L 125.9 -29.7 L 125.9 -29.7 Q 122.9 -29.7 120.6 -30.5 L 120.6 -30.5 L 120.6 -30.5 Q 118.2 -31.2 116.7 -32.9 Z M 130.2 -58.9 L 130.2 -58.9 L 130.2 -58.9 Q 129.5 -57.7 128.8 -55.8 L 128.8 -55.8 L 128.8 -55.8 Q 128.2 -53.8 127.1 -48.6 L 127.1 -48.6 L 127.1 -48.6 Q 126.1 -43.4 126.1 -39.7 L 126.1 -39.7 L 126.1 -39.7 Q 126.1 -36 126.7 -34.9 L 126.7 -34.9 L 126.7 -34.9 Q 127.2 -33.8 128.3 -33.8 L 128.3 -33.8 L 128.3 -33.8 Q 130.3 -33.8 131.8 -35.8 L 131.8 -35.8 L 131.8 -35.8 Q 133.3 -37.7 133.9 -41.2 L 133.9 -41.2 L 137.3 -59.9 L 137.3 -59.9 Q 135.9 -61.1 134.4 -61.1 L 134.4 -61.1 L 134.4 -61.1 Q 132.8 -61.1 131.9 -60.6 L 131.9 -60.6 L 131.9 -60.6 Q 130.9 -60 130.2 -58.9 Z M 158.4 -57.7 L 158.4 -57.7 L 158.4 -57.7 Q 160.6 -60.8 163.9 -62.9 L 163.9 -62.9 L 163.9 -62.9 Q 167.2 -64.9 171.2 -64.9 L 171.2 -64.9 L 171.2 -64.9 Q 175.2 -64.9 177.2 -63.6 L 177.2 -63.6 L 189.7 -64.9 L 185.3 -40.3 L 185.3 -40.3 Q 183.1 -27.8 178.4 -22.9 L 178.4 -22.9 L 178.4 -22.9 Q 173.8 -18.2 165 -18.2 L 165 -18.2 L 165 -18.2 Q 158.3 -18.2 154.4 -20.3 L 154.4 -20.3 L 154.4 -20.3 Q 150.6 -22.4 150.6 -25.9 L 150.6 -25.9 L 150.6 -25.9 Q 150.6 -28.6 152.6 -30.1 L 152.6 -30.1 L 152.6 -30.1 Q 154.6 -31.6 157.6 -31.6 L 157.6 -31.6 L 157.6 -31.6 Q 160.3 -31.6 162.4 -30.3 L 162.4 -30.3 L 162.4 -30.3 Q 163.6 -29.7 164.2 -28.8 L 164.2 -28.8 L 164.2 -28.8 Q 162.7 -27.5 162.7 -25.4 L 162.7 -25.4 L 162.7 -25.4 Q 162.7 -22.7 165.2 -22.7 L 165.2 -22.7 L 165.2 -22.7 Q 169.5 -22.7 172 -32.8 L 172 -32.8 L 172 -32.8 Q 172.7 -35.5 173.2 -38.3 L 173.2 -38.3 L 173.2 -38.3 Q 170.4 -34.8 163.8 -34.8 L 163.8 -34.8 L 163.8 -34.8 Q 159.3 -34.8 156.7 -36.9 L 156.7 -36.9 L 156.7 -36.9 Q 154 -39.1 154 -44.2 L 154 -44.2 L 154 -44.2 Q 154 -47.4 155.1 -51 L 155.1 -51 L 155.1 -51 Q 156.2 -54.7 158.4 -57.7 Z M 166.7 -44 L 166.7 -44 L 166.7 -44 Q 166.7 -39.7 169 -39.7 L 169 -39.7 L 169 -39.7 Q 170.5 -39.7 172 -41.4 L 172 -41.4 L 172 -41.4 Q 173.1 -42.7 173.6 -44.7 L 173.6 -44.7 L 176.8 -61.1 L 176.8 -61.1 Q 176.5 -61.2 176.2 -61.3 L 176.2 -61.3 L 176.2 -61.3 Q 175.6 -61.6 174.7 -61.6 L 174.7 -61.6 L 174.7 -61.6 Q 170.8 -61.6 168.5 -55.2 L 168.5 -55.2 L 168.5 -55.2 Q 166.7 -50.2 166.7 -44 Z M 218.1 -41.8 L 218.1 -41.8 L 218.1 -41.8 Q 219.7 -40.7 219.7 -38.3 L 219.7 -38.3 L 219.7 -38.3 Q 219.7 -35.9 218.5 -34.4 L 218.5 -34.4 L 218.5 -34.4 Q 217.3 -32.8 215.3 -31.8 L 215.3 -31.8 L 215.3 -31.8 Q 211.2 -29.7 206.8 -29.7 L 206.8 -29.7 L 206.8 -29.7 Q 202.4 -29.7 199.8 -30.7 L 199.8 -30.7 L 199.8 -30.7 Q 197.2 -31.6 195.5 -33.4 L 195.5 -33.4 L 195.5 -33.4 Q 192.1 -36.8 192.1 -43 L 192.1 -43 L 192.1 -43 Q 192.1 -52.7 197.3 -58.6 L 197.3 -58.6 L 197.3 -58.6 Q 202.9 -64.9 212.7 -64.9 L 212.7 -64.9 L 212.7 -64.9 Q 218.8 -64.9 221.8 -62.3 L 221.8 -62.3 L 221.8 -62.3 Q 224.1 -60.4 224.1 -57.3 L 224.1 -57.3 L 224.1 -57.3 Q 224.1 -46 204.6 -46 L 204.6 -46 L 204.6 -46 Q 204.4 -44.4 204.4 -43 L 204.4 -43 L 204.4 -43 Q 204.4 -40 205.7 -38.9 L 205.7 -38.9 L 205.7 -38.9 Q 207 -37.8 209.4 -37.8 L 209.4 -37.8 L 209.4 -37.8 Q 211.8 -37.8 214.4 -38.9 L 214.4 -38.9 L 214.4 -38.9 Q 217 -40 218.1 -41.8 Z M 205.1 -48.8 L 205.1 -48.8 L 205.1 -48.8 Q 209.6 -48.8 212.2 -51.6 L 212.2 -51.6 L 212.2 -51.6 Q 214.8 -54.3 214.8 -58.6 L 214.8 -58.6 L 214.8 -58.6 Q 214.8 -60 214.3 -60.8 L 214.3 -60.8 L 214.3 -60.8 Q 213.8 -61.6 212.7 -61.6 L 212.7 -61.6 L 212.7 -61.6 Q 211.6 -61.6 210.7 -61.2 L 210.7 -61.2 L 210.7 -61.2 Q 209.7 -60.8 208.8 -59.4 L 208.8 -59.4 L 208.8 -59.4 Q 206.4 -56.2 205.1 -48.8 Z M 245.4 -53.4 L 245.4 -53.4 L 245.4 -53.4 Q 246.3 -55.8 246.3 -57.9 L 246.3 -57.9 L 246.3 -57.9 Q 246.3 -61.6 243.2 -61.6 L 243.2 -61.6 L 243.2 -61.6 Q 241.6 -61.6 240.3 -60.2 L 240.3 -60.2 L 240.3 -60.2 Q 239 -58.8 239 -57 L 239 -57 L 239 -57 Q 239 -55.7 240 -54.7 L 240 -54.7 L 240 -54.7 Q 241.5 -53.3 245.2 -51 L 245.2 -51 L 245.2 -51 Q 249 -48.6 250.5 -46.8 L 250.5 -46.8 L 250.5 -46.8 Q 251.9 -44.9 251.9 -42.3 L 251.9 -42.3 L 251.9 -42.3 Q 251.9 -39.7 250.7 -37.3 L 250.7 -37.3 L 250.7 -37.3 Q 249.4 -35 247.2 -33.3 L 247.2 -33.3 L 247.2 -33.3 Q 242.4 -29.7 234.7 -29.7 L 234.7 -29.7 L 234.7 -29.7 Q 230.5 -29.7 227.3 -31.9 L 227.3 -31.9 L 227.3 -31.9 Q 224.1 -34 224.1 -36.5 L 224.1 -36.5 L 224.1 -36.5 Q 224.1 -39 226 -40.5 L 226 -40.5 L 226 -40.5 Q 227.8 -41.9 230.5 -41.9 L 230.5 -41.9 L 230.5 -41.9 Q 233.2 -41.9 234.8 -40.9 L 234.8 -40.9 L 234.8 -40.9 Q 234 -38.8 234 -37.4 L 234 -37.4 L 234 -37.4 Q 234 -33.2 237.6 -33.2 L 237.6 -33.2 L 237.6 -33.2 Q 239.1 -33.2 240.1 -34.1 L 240.1 -34.1 L 240.1 -34.1 Q 241.2 -35.1 241.2 -36.7 L 241.2 -36.7 L 241.2 -36.7 Q 241.2 -40 235.6 -43.5 L 235.6 -43.5 L 235.6 -43.5 Q 231.2 -46.4 230.1 -47.6 L 230.1 -47.6 L 230.1 -47.6 Q 228.4 -49.6 228.4 -52.2 L 228.4 -52.2 L 228.4 -52.2 Q 228.4 -54.7 229.6 -57.2 L 229.6 -57.2 L 229.6 -57.2 Q 230.8 -59.6 233.1 -61.3 L 233.1 -61.3 L 233.1 -61.3 Q 237.8 -64.9 245.9 -64.9 L 245.9 -64.9 L 245.9 -64.9 Q 250 -64.9 252.5 -63.2 L 252.5 -63.2 L 252.5 -63.2 Q 255 -61.6 255 -58.8 L 255 -58.8 L 255 -58.8 Q 255 -55.9 253.3 -54.3 L 253.3 -54.3 L 253.3 -54.3 Q 251.6 -52.7 248.5 -52.7 L 248.5 -52.7 L 248.5 -52.7 Q 246.4 -52.7 245.4 -53.4 Z M 296.4 -51.6 L 309.4 -52.7 L 309.4 -52.7 Q 304.8 -42.6 304.8 -30.9 L 304.8 -30.9 L 304.8 -30.9 Q 303 -29.7 300.5 -29.7 L 300.5 -29.7 L 300.5 -29.7 Q 298 -29.7 296.4 -30.9 L 296.4 -30.9 L 296.4 -30.9 Q 294.8 -32.1 294.5 -33.3 L 294.5 -33.3 L 294.5 -33.3 Q 292.9 -31.6 290.3 -30.7 L 290.3 -30.7 L 290.3 -30.7 Q 287.7 -29.7 284.9 -29.7 L 284.9 -29.7 L 284.9 -29.7 Q 282.2 -29.7 279.8 -30.6 L 279.8 -30.6 L 279.8 -30.6 Q 277.4 -31.5 275.5 -33.5 L 275.5 -33.5 L 275.5 -33.5 Q 271.4 -37.8 271.4 -46.1 L 271.4 -46.1 L 271.4 -46.1 Q 271.4 -58.9 278.3 -66.6 L 278.3 -66.6 L 278.3 -66.6 Q 285.3 -74.5 297.8 -74.5 L 297.8 -74.5 L 297.8 -74.5 Q 306.4 -74.5 309.5 -70 L 309.5 -70 L 309.5 -70 Q 310.5 -68.6 310.5 -66.9 L 310.5 -66.9 L 310.5 -66.9 Q 310.5 -65.2 309.7 -63.8 L 309.7 -63.8 L 309.7 -63.8 Q 309 -62.3 307.8 -61.2 L 307.8 -61.2 L 307.8 -61.2 Q 305.1 -58.6 301.7 -58.6 L 301.7 -58.6 L 301.7 -58.6 Q 300.4 -58.6 299.1 -59.1 L 299.1 -59.1 L 299.1 -59.1 Q 299.3 -61 299.3 -63.2 L 299.3 -63.2 L 299.3 -63.2 Q 299.3 -65.5 299.2 -66.5 L 299.2 -66.5 L 299.2 -66.5 Q 299 -67.5 298.6 -68.4 L 298.6 -68.4 L 298.6 -68.4 Q 297.8 -70.1 296 -70.1 L 296 -70.1 L 296 -70.1 Q 294.1 -70.1 292.1 -68.1 L 292.1 -68.1 L 292.1 -68.1 Q 290.1 -66.2 288.5 -63 L 288.5 -63 L 288.5 -63 Q 285 -55.8 285 -47.2 L 285 -47.2 L 285 -47.2 Q 285 -43.2 286.5 -40.4 L 286.5 -40.4 L 286.5 -40.4 Q 288.2 -37.3 291.1 -37.3 L 291.1 -37.3 L 291.1 -37.3 Q 292.2 -37.3 293.1 -37.8 L 293.1 -37.8 L 293.1 -37.8 Q 294 -38.3 294.4 -38.7 L 294.4 -38.7 L 296.4 -51.6 Z M 315.3 -32.9 L 315.3 -32.9 L 315.3 -32.9 Q 313.8 -34.6 313.1 -37.2 L 313.1 -37.2 L 313.1 -37.2 Q 312.4 -39.8 312.4 -44.1 L 312.4 -44.1 L 312.4 -44.1 Q 312.4 -48.4 313.9 -52.3 L 313.9 -52.3 L 313.9 -52.3 Q 315.4 -56.2 318.1 -59 L 318.1 -59 L 318.1 -59 Q 323.6 -64.9 332.7 -64.9 L 332.7 -64.9 L 332.7 -64.9 Q 335.9 -64.9 338.3 -63.8 L 338.3 -63.8 L 349.2 -64.9 L 344.5 -39.9 L 344.5 -39.9 Q 344.3 -39.2 344.3 -37.8 L 344.3 -37.8 L 344.3 -37.8 Q 344.3 -36.4 345.2 -35.5 L 345.2 -35.5 L 345.2 -35.5 Q 346 -34.6 347.3 -34.4 L 347.3 -34.4 L 347.3 -34.4 Q 346.7 -32.3 344.4 -31 L 344.4 -31 L 344.4 -31 Q 342 -29.7 339.4 -29.7 L 339.4 -29.7 L 339.4 -29.7 Q 336.8 -29.7 335 -30.7 L 335 -30.7 L 335 -30.7 Q 333.2 -31.7 332.7 -33.4 L 332.7 -33.4 L 332.7 -33.4 Q 331.7 -31.8 329.5 -30.7 L 329.5 -30.7 L 329.5 -30.7 Q 327.4 -29.7 324.4 -29.7 L 324.4 -29.7 L 324.4 -29.7 Q 321.5 -29.7 319.2 -30.5 L 319.2 -30.5 L 319.2 -30.5 Q 316.8 -31.2 315.3 -32.9 Z M 328.8 -58.9 L 328.8 -58.9 L 328.8 -58.9 Q 328.1 -57.7 327.4 -55.8 L 327.4 -55.8 L 327.4 -55.8 Q 326.8 -53.8 325.7 -48.6 L 325.7 -48.6 L 325.7 -48.6 Q 324.7 -43.4 324.7 -39.7 L 324.7 -39.7 L 324.7 -39.7 Q 324.7 -36 325.2 -34.9 L 325.2 -34.9 L 325.2 -34.9 Q 325.8 -33.8 326.8 -33.8 L 326.8 -33.8 L 326.8 -33.8 Q 328.9 -33.8 330.4 -35.8 L 330.4 -35.8 L 330.4 -35.8 Q 331.9 -37.7 332.5 -41.2 L 332.5 -41.2 L 335.9 -59.9 L 335.9 -59.9 Q 334.5 -61.1 333 -61.1 L 333 -61.1 L 333 -61.1 Q 331.4 -61.1 330.5 -60.6 L 330.5 -60.6 L 330.5 -60.6 Q 329.5 -60 328.8 -58.9 Z M 368 -34.5 L 368 -34.5 L 368 -34.5 Q 366 -29.7 359.7 -29.7 L 359.7 -29.7 L 359.7 -29.7 Q 356.5 -29.7 354.4 -31.9 L 354.4 -31.9 L 354.4 -31.9 Q 352.8 -33.8 352.8 -35.9 L 352.8 -35.9 L 352.8 -35.9 Q 352.8 -40.7 355 -51.2 L 355 -51.2 L 359.7 -75.8 L 372.7 -77.1 L 366.5 -44.7 L 366.5 -44.7 Q 365.4 -39.9 365.4 -38.3 L 365.4 -38.3 L 365.4 -38.3 Q 365.4 -34.6 368 -34.5 Z M 388.7 -34.5 L 388.7 -34.5 L 388.7 -34.5 Q 386.8 -29.7 380.4 -29.7 L 380.4 -29.7 L 380.4 -29.7 Q 377.2 -29.7 375.2 -31.9 L 375.2 -31.9 L 375.2 -31.9 Q 373.5 -33.8 373.5 -35.9 L 373.5 -35.9 L 373.5 -35.9 Q 373.5 -40.7 375.7 -51.2 L 375.7 -51.2 L 380.4 -75.8 L 393.4 -77.1 L 387.2 -44.7 L 387.2 -44.7 Q 386.1 -39.9 386.1 -38.3 L 386.1 -38.3 L 386.1 -38.3 Q 386.1 -34.6 388.7 -34.5 Z M 420.1 -41.8 L 420.1 -41.8 L 420.1 -41.8 Q 421.7 -40.7 421.7 -38.3 L 421.7 -38.3 L 421.7 -38.3 Q 421.7 -35.9 420.5 -34.4 L 420.5 -34.4 L 420.5 -34.4 Q 419.3 -32.8 417.3 -31.8 L 417.3 -31.8 L 417.3 -31.8 Q 413.2 -29.7 408.8 -29.7 L 408.8 -29.7 L 408.8 -29.7 Q 404.4 -29.7 401.8 -30.7 L 401.8 -30.7 L 401.8 -30.7 Q 399.2 -31.6 397.4 -33.4 L 397.4 -33.4 L 397.4 -33.4 Q 394 -36.8 394 -43 L 394 -43 L 394 -43 Q 394 -52.7 399.3 -58.6 L 399.3 -58.6 L 399.3 -58.6 Q 404.9 -64.9 414.7 -64.9 L 414.7 -64.9 L 414.7 -64.9 Q 420.8 -64.9 423.8 -62.3 L 423.8 -62.3 L 423.8 -62.3 Q 426 -60.4 426 -57.3 L 426 -57.3 L 426 -57.3 Q 426 -46 406.6 -46 L 406.6 -46 L 406.6 -46 Q 406.3 -44.4 406.3 -43 L 406.3 -43 L 406.3 -43 Q 406.3 -40 407.6 -38.9 L 407.6 -38.9 L 407.6 -38.9 Q 409 -37.8 411.4 -37.8 L 411.4 -37.8 L 411.4 -37.8 Q 413.8 -37.8 416.4 -38.9 L 416.4 -38.9 L 416.4 -38.9 Q 419 -40 420.1 -41.8 Z M 407 -48.8 L 407 -48.8 L 407 -48.8 Q 411.6 -48.8 414.2 -51.6 L 414.2 -51.6 L 414.2 -51.6 Q 416.8 -54.3 416.8 -58.6 L 416.8 -58.6 L 416.8 -58.6 Q 416.8 -60 416.3 -60.8 L 416.3 -60.8 L 416.3 -60.8 Q 415.7 -61.6 414.7 -61.6 L 414.7 -61.6 L 414.7 -61.6 Q 413.6 -61.6 412.6 -61.2 L 412.6 -61.2 L 412.6 -61.2 Q 411.7 -60.8 410.8 -59.4 L 410.8 -59.4 L 410.8 -59.4 Q 408.4 -56.2 407 -48.8 Z M 448.3 -49 L 448.3 -49 L 448.3 -49 Q 450.6 -53.1 450.6 -57.2 L 450.6 -57.2 L 450.6 -57.2 Q 450.6 -60 448.6 -60 L 448.6 -60 L 448.6 -60 Q 447 -60 445.4 -57.4 L 445.4 -57.4 L 445.4 -57.4 Q 443.8 -54.7 443.3 -51.3 L 443.3 -51.3 L 439.9 -31 L 426.7 -29.7 L 433.2 -63.6 L 443.8 -64.9 L 442.6 -58.4 L 442.6 -58.4 Q 445.8 -64.9 452.8 -64.9 L 452.8 -64.9 L 452.8 -64.9 Q 456.5 -64.9 458.5 -63 L 458.5 -63 L 458.5 -63 Q 460.5 -61.1 460.5 -57.1 L 460.5 -57.1 L 460.5 -57.1 Q 460.5 -53.2 458 -50.7 L 458 -50.7 L 458 -50.7 Q 455.4 -48.2 450.9 -48.2 L 450.9 -48.2 L 450.9 -48.2 Q 449 -48.2 448.3 -49 Z M 481.9 -38.2 L 481.9 -38.2 L 481.9 -38.2 Q 478.6 -34.8 472.5 -34.8 L 472.5 -34.8 L 472.5 -34.8 Q 464.9 -34.8 463.3 -40.3 L 463.3 -40.3 L 463.3 -40.3 Q 462.8 -42 462.8 -43.8 L 462.8 -43.8 L 462.8 -43.8 Q 462.8 -45.7 463.2 -47.6 L 463.2 -47.6 L 466.2 -63.6 L 479.2 -64.9 L 475.6 -46.3 L 475.6 -46.3 Q 475.5 -45.4 475.3 -44.6 L 475.3 -44.6 L 475.3 -44.6 Q 475.1 -43.7 475.1 -42.7 L 475.1 -42.7 L 475.1 -42.7 Q 475.1 -41.8 475.5 -41.2 L 475.5 -41.2 L 475.5 -41.2 Q 475.8 -40.6 476.2 -40.2 L 476.2 -40.2 L 476.2 -40.2 Q 477 -39.7 478.4 -39.7 L 478.4 -39.7 L 478.4 -39.7 Q 479.7 -39.7 480.9 -41.4 L 480.9 -41.4 L 480.9 -41.4 Q 482.1 -43 482.7 -45.9 L 482.7 -45.9 L 486.2 -63.6 L 498.8 -64.9 L 494 -39.8 L 494 -39.8 Q 491.6 -27.5 486.8 -22.6 L 486.8 -22.6 L 486.8 -22.6 Q 484.3 -20.1 481.1 -19.1 L 481.1 -19.1 L 481.1 -19.1 Q 477.8 -18.1 473.7 -18.1 L 473.7 -18.1 L 473.7 -18.1 Q 466.9 -18.1 463.1 -20.2 L 463.1 -20.2 L 463.1 -20.2 Q 459.3 -22.3 459.3 -25.9 L 459.3 -25.9 L 459.3 -25.9 Q 459.3 -28.5 461.2 -30 L 461.2 -30 L 461.2 -30 Q 463.2 -31.5 466.3 -31.5 L 466.3 -31.5 L 466.3 -31.5 Q 469 -31.5 471 -30.3 L 471 -30.3 L 471 -30.3 Q 472.3 -29.6 472.8 -28.7 L 472.8 -28.7 L 472.8 -28.7 Q 471.4 -27.5 471.4 -25.4 L 471.4 -25.4 L 471.4 -25.4 Q 471.4 -22.5 473.9 -22.5 L 473.9 -22.5 L 473.9 -22.5 Q 478.1 -22.5 480.6 -32.3 L 480.6 -32.3 L 480.6 -32.3 Q 481.3 -35.1 481.9 -38.2 Z" fill="url(#editing-gradient-gradient)"></path></g></g><style>text {
  font-size: 64px;
  font-family: Arial Black;
  dominant-baseline: central;
  text-anchor: middle;
}</style></svg>